<svg width="24" height="24" viewBox="0 0 24 24" fill="none" xmlns="http://www.w3.org/2000/svg">
<path d="M3 12V17M3 17H5C6.414 17 7.121 17 7.56 17.44C8 17.878 8 18.585 8 20V21M3 17V21M4 7L9.317 4.083C10.633 3.361 11.292 3 12 3C12.708 3 13.367 3.361 14.683 4.083L20 7M18 6V10M6 6V10M21 12V17M21 17H19C17.586 17 16.879 17 16.44 17.44C16 17.878 16 18.585 16 20V21M21 17V21M7 14H12M12 14H17M12 14V21M12 21H11M12 21H13" stroke="black" stroke-width="1.5" stroke-linecap="round" stroke-linejoin="round"/>
</svg>
